<svg xmlns="http://www.w3.org/2000/svg" viewBox="0 0 321 137" xmlns:xlink="http://www.w3.org/1999/xlink"><defs><path id="a" d="M0 .555h320.858V137H0V.555z"/><path id="c" d="M0 .555h320.858V137H0V.555z"/><path id="e" d="M0 .555h320.858V137H0V.555z"/></defs><g fill="none" fill-rule="evenodd"><mask id="b" fill="#fff"><use xlink:href="#a"/></mask><path fill="#FEFEFE" d="M13.83 104h10.807c5.01 0 8.034-2.28 8.034-6.71 0-4.472-3.02-6.79-8.03-6.79H13.83V104zm0 31.923H0v-57.97h24.844c14.327 0 21.905 7.7 21.905 19.337 0 11.428-7.58 19.047-21.78 19.047H13.83v19.586z" mask="url(#b)"/><mask id="d" fill="#fff"><use xlink:href="#c"/></mask><path fill="#FEFEFE" d="M60.22 115.593c.003 5.3 3.48 9.316 8.657 9.316 5.093 0 8.695-3.94 8.695-9.32.002-5.39-3.6-9.32-8.694-9.32-5.176 0-8.655 4.01-8.655 9.31h.002zm17.23 20.33v-4.388C74.963 134.722 71.277 137 65.77 137c-10.807 0-18.88-9.4-18.88-21.45-.002-11.924 8.032-21.365 18.92-21.365 5.468 0 9.194 2.32 11.638 5.507v-4.39h12.547v40.62H77.448z" mask="url(#d)"/><path fill="#FEFEFE" d="M123.175 94.806l-1.2 12.92c-1.782-.622-4.184-1.077-6.502-1.077-4.638 0-7.412 2.23-7.412 7.32v21.94H95.1V95.3h12.422v4.68c2.36-3.976 6.088-5.798 11.098-5.798 1.946 0 3.56.332 4.555.622m24.278 11.967v11.89c0 4.68 2.484 6.25 5.756 6.25 2.44 0 5.01-1.32 7.03-2.52l4.47 10.11c-3.85 2.608-7.83 4.513-14.41 4.513-10.94 0-15.82-6.54-15.82-16.69v-13.54h-7.58V95.3h7.58V83.46h12.96v11.843h13.87v11.47h-13.87zm58.977 2.49v26.67h-12.96v-22.07c0-4.84-2.402-7.49-6.42-7.49-3.6 0-6.583 2.4-6.583 7.705v21.867h-12.96V95.31h12.422v5.09c2.6-4.307 6.62-6.212 12.09-6.212 8.11 0 14.41 5.674 14.41 15.073m17.2 2.15h14.78c-1.04-4.1-3.52-6.21-7.33-6.21-4.02 0-6.46 2.2-7.46 6.21m27.743 4.19c0 1.33-.08 3.15-.247 4.02h-27.53c1.12 4.47 4.223 6.5 8.696 6.5 3.025 0 6.254-1.24 8.86-3.56l8.367 7.79c-4.26 4.26-10.307 6.66-17.884 6.66-12.755 0-21.41-8.487-21.41-21.16 0-12.75 8.447-21.655 20.828-21.655 12.05 0 20.33 8.697 20.33 21.41m31.5-20.79l-1.21 12.92c-1.78-.62-4.188-1.076-6.5-1.076-4.64 0-7.418 2.23-7.418 7.32v21.945H254.8V95.3h12.42v4.68c2.36-3.976 6.09-5.798 11.1-5.798 1.946 0 3.56.332 4.555.622m19.883 9.855c-3.436 0-4.72.99-4.72 2.48 0 1.74 2.567 2.11 6.542 2.77l2.98.45c8.74 1.323 13.293 5.423 13.293 12.34 0 8.9-6.956 14.242-18.8 14.242-6.955 0-14.12-1.287-18.756-4.268l4.51-10.02c4.1 2.442 8.656 3.81 14.33 3.81 4.015 0 5.67-.87 5.67-2.65 0-1.534-1.82-2.197-6.417-2.9l-2.36-.33c-9.814-1.45-14.326-5.468-14.326-12.797 0-8.61 6.458-13.58 17.556-13.58 6.585 0 10.807.91 17.474 3.48l-3.602 10.103c-3.976-1.656-9.235-3.147-13.375-3.147m-244.11-96c0 4.416 3.44 7.898 7.94 7.898 4.458 0 7.94-3.48 7.94-7.895 0-1.174-.25-2.27-.68-3.263l-15.11 2.13c-.05.37-.087.75-.087 1.14m-44.47 4.89v17.57h25.01V10.03l14.18-1.99v59.344H39.19V44.24H14.18v23.144H0V15.56l14.18-2.013z"/><mask id="f" fill="#fff"><use xlink:href="#e"/></mask><path fill="#FEFEFE" d="M59.346 67.384h13.29V22.188h-13.29v45.196zm18.494 0h13.29V3.014L77.84 4.88v62.504zm18.495-64.96v64.96h13.29V.554l-13.29 1.87zm45.43 65.026h-1.814V28.254h1.82V67.45z" mask="url(#f)"/><path fill="#FEFEFE" d="M160.454 48.757H121.26v-1.813h39.194v1.813z" mask="url(#f)"/></g></svg>